Coordinates
version=1
nRows=17
nColumns=36
inDegrees=yes

Units are S.I. units (second, meters, Newtons, ...)
If the header above contains a line with 'inDegrees', this indicates whether rotational values are in degrees (yes) or radians (no).

endheader
time	pelvis_tilt	pelvis_list	pelvis_rotation	pelvis_tx	pelvis_ty	pelvis_tz	hip_flexion_r	hip_adduction_r	hip_rotation_r	knee_angle_r	knee_angle_r_beta	ankle_angle_r	subtalar_angle_r	mtp_angle_r	hip_flexion_l	hip_adduction_l	hip_rotation_l	knee_angle_l	knee_angle_l_beta	ankle_angle_l	subtalar_angle_l	mtp_angle_l	lumbar_extension	lumbar_bending	lumbar_rotation	arm_flex_r	arm_add_r	arm_rot_r	elbow_flex_r	pro_sup_r	arm_flex_l	arm_add_l	arm_rot_l	elbow_flex_l	pro_sup_l
      0.98333330	     31.82931531	      0.53388583	     -5.16427246	     -0.17767108	      0.66308084	     -0.05931847	     48.80640472	     -4.44801146	      4.41475778	     91.05685821	      1.58924198	      1.46980843	     -7.47086380	     -7.49998431	     49.00933802	    -13.05314110	      2.68225259	     87.91458656	      1.53439900	     -3.53587472	     -4.04484036	     -7.49998431	    -49.06005681	     -2.33940419	      1.48628377	     17.84816742	    -14.58691925	     77.74414844	      4.30738924	     38.53199351	     12.02552914	    -14.33809074	     45.11251978	      9.11698764	     49.27361529
      1.00000000	     31.80638136	      0.85978028	     -5.29753631	     -0.17312497	      0.65847223	     -0.06209294	     49.23994263	     -4.87608105	      4.77520566	     91.59649726	      1.59866046	      1.62165306	     -7.73431161	     -7.49998446	     48.92203577	    -12.58818404	      3.31363972	     88.44560341	      1.54366699	     -2.14023541	     -2.27024836	     -7.49998446	    -48.55021738	     -2.41915427	      1.30115902	     17.68102054	    -14.83627670	     77.76958818	      4.30508039	     38.51522516	     11.68830576	    -14.25328586	     45.09427115	      9.13226241	     49.26834480
      1.01666670	     31.77735071	      0.93519951	     -5.51220558	     -0.17323440	      0.65801816	     -0.06164441	     49.56660155	     -4.81142099	      5.02089152	     91.95255536	      1.60487485	      1.52711993	     -7.88309557	     -7.49998574	     48.84962129	    -12.41689403	      3.69679420	     89.19496968	      1.55674590	     -1.05421025	     -1.24067074	     -7.49998574	    -48.18397771	     -2.44910619	      0.69894144	     17.90514723	    -14.64944293	     76.93916471	      4.13055566	     39.81802971	     11.22173294	    -14.26664279	     43.99929046	      9.24405249	     49.50021158
      1.03333330	     31.71726573	      0.93448104	     -5.42056584	     -0.17419650	      0.65797475	     -0.06165251	     49.66281060	     -4.81527684	      5.09229886	     92.07216041	      1.60696235	      1.79684241	     -7.65205942	     -7.49998762	     48.35746033	    -12.08987656	      3.90809334	     88.96504954	      1.55273303	      0.06851856	     -1.54204956	     -7.49998762	    -47.73026039	     -2.36211141	      0.61727840	     17.68649170	    -14.67619892	     76.21034542	      4.08892624	     41.19715075	     11.36091455	    -14.02316004	     43.02514443	      8.98357212	     49.96940004
      1.05000000	     31.60775425	      0.79905542	     -5.47775109	     -0.17918755	      0.65765115	     -0.05864293	     49.81574975	     -4.42966341	      5.04745699	     92.04756574	      1.60653309	      2.02887412	     -7.81959058	     -7.49998767	     48.20823020	    -12.25656543	      4.00338719	     89.13401882	      1.55568210	      0.68362713	     -2.53385177	     -7.49998767	    -47.73403838	     -2.41253424	      0.58711494	     17.84688690	    -14.58961515	     76.20455805	      4.15576760	     41.14739816	     11.64470821	    -14.11306501	     43.06718200	      8.99269475	     49.97975045
      1.06666670	     31.65046142	      0.76374590	     -5.40484661	     -0.18443864	      0.65784361	     -0.05591994	     49.91984303	     -4.03930166	      4.85010676	     91.57033833	      1.59820390	      1.53618439	     -8.58963320	     -7.49998781	     47.97655918	    -12.28353972	      4.03070752	     88.88820214	      1.55139179	      0.56633417	     -4.11384798	     -7.49998781	    -47.96475134	     -2.50364096	      0.66040480	     17.96998790	    -14.55076318	     76.18215117	      4.27938429	     40.98478523	     12.05883446	    -14.30655039	     43.25931121	      9.11172937	     50.03863075
      1.08333330	     31.66869339	      0.80275173	     -5.35931525	     -0.17803635	      0.66054703	     -0.05869203	     49.75662740	     -4.00642472	      4.88872586	     91.40878912	      1.59538434	      1.56977048	     -8.71874741	     -7.49998796	     47.76437932	    -12.13214873	      3.89530208	     88.85120950	      1.55074615	      0.19088433	     -5.04072757	     -7.49998796	    -48.02114961	     -2.54325105	      0.75618909	     17.93797188	    -14.56277874	     76.13186074	      4.32527671	     40.80831556	     12.31012343	    -14.37201669	     43.42030258	      9.22911940	     50.08055592
      1.10000000	     31.64767409	      0.72463500	     -5.51075779	     -0.17846636	      0.66055668	     -0.05871381	     49.51884646	     -3.93369079	      4.73446273	     91.08425948	      1.58972022	      1.26931797	     -8.52931370	     -7.49999001	     47.67817973	    -12.11782942	      3.74573044	     88.44823191	      1.54371286	      0.35328336	     -5.09282396	     -7.49999001	    -48.11404056	     -2.60714999	      0.90000069	     18.03360483	    -14.58465572	     74.61344147	      4.40748342	     42.59968983	     12.32967930	    -14.42905067	     42.26517929	      9.51073506	     51.00969060
      1.11666670	     31.64290011	      0.67933070	     -5.52504695	     -0.18359136	      0.66015996	     -0.06099822	     49.58279282	     -4.10564877	      4.73304300	     90.84877695	      1.58561028	      1.32893076	     -8.41923760	     -7.49999006	     47.75814151	    -11.86129002	      3.69906776	     88.43145321	      1.54342002	      0.41575554	     -4.87850521	     -7.49999006	    -48.28334004	     -2.46121028	      0.98215485	     18.25963383	    -14.68277713	     74.59832744	      4.41210505	     42.50938473	     12.68577237	    -14.45918102	     42.29729543	      9.60790440	     51.01102667
      1.13333330	     31.62011722	      0.74888771	     -5.38389082	     -0.18416891	      0.65796529	     -0.05601063	     49.82624783	     -4.30482434	      4.45249771	     90.83979653	      1.58545354	      1.22241921	     -8.34670506	     -7.49999008	     47.97155376	    -11.96237876	      3.69225754	     88.47593138	      1.54419631	      0.34335272	     -4.60096861	     -7.49999008	    -48.52554386	     -2.52541149	      0.97372917	     18.46451542	    -14.59151060	     74.58245800	      4.45657936	     42.46291988	     13.23369964	    -14.74145862	     42.28364532	      9.66953348	     51.00866328
      1.15000000	     31.51986893	      0.82653434	     -5.29134831	     -0.18887221	      0.65786919	     -0.05838323	     50.12717185	     -4.50970850	      4.29245567	     90.55974610	      1.58056574	      1.00166663	     -8.34448497	     -7.49999012	     48.17567163	    -11.92743877	      3.55517355	     88.42866362	      1.54337133	      0.17073482	     -4.38740148	     -7.49999012	    -48.71095456	     -2.52711988	      0.96316027	     18.74464075	    -14.59518068	     74.54466828	      4.48504245	     42.38152552	     13.76479999	    -14.94274588	     42.30899759	      9.83860096	     51.02438439
      1.16666670	     31.31639044	      0.86578103	     -5.20268618	     -0.18892992	      0.65811131	     -0.05857813	     50.39497311	     -4.80329631	      4.01923303	     90.39684423	      1.57772257	      0.81171352	     -8.12168778	     -7.49999123	     48.48460609	    -12.06796261	      3.52966516	     88.45032014	      1.54374931	     -0.43203351	     -4.72038117	     -7.49999123	    -48.75154252	     -2.49050435	      0.87146768	     18.91543386	    -14.61142790	     73.67929269	      4.70515738	     42.68683038	     13.99439358	    -15.27539938	     42.16407112	     10.56849604	     51.64198277
      1.18333330	     31.25199553	      0.97292092	     -4.98259373	     -0.18837961	      0.65820543	     -0.05855843	     50.38448274	     -5.18136947	      3.86162515	     90.25698060	      1.57528148	      0.66812746	     -8.17185882	     -7.49999245	     48.58961582	    -12.10156460	      3.26563568	     88.21313782	      1.53960970	     -1.22087975	     -5.15775074	     -7.49999245	    -48.92366935	     -2.42374844	      0.37794542	     19.25174417	    -14.44454768	     72.49084184	      4.78968708	     44.02670582	     13.94613852	    -15.69895553	     41.24809149	     11.36492762	     52.43831624
      1.20000000	     30.91411135	      0.76053682	     -4.90011506	     -0.18322801	      0.65801800	     -0.06153221	     50.48264695	     -5.32684231	      3.74687300	     90.35337567	      1.57696390	      1.14358200	     -7.44124413	     -7.49999256	     48.87982974	    -12.44179118	      3.09018459	     87.94464667	      1.53492364	     -1.46604884	     -6.28149064	     -7.49999256	    -48.47300141	     -2.15306937	      0.75924184	     19.07645835	    -14.62691615	     72.42946309	      4.80308980	     43.72631658	     14.27479462	    -15.42225401	     41.32917954	     11.13464622	     52.43506668
      1.21666670	     30.77155180	      0.66680477	     -4.88860509	     -0.18874203	      0.65792717	     -0.05884426	     50.53667902	     -5.36036176	      3.59668750	     90.27769163	      1.57564296	      1.20586794	     -7.40964697	     -7.49999258	     48.94835477	    -12.68584133	      2.94192964	     87.57039026	      1.52839164	     -1.27792010	     -6.36717705	     -7.49999258	    -48.39488042	     -2.11102986	      0.74655155	     19.24625986	    -14.59354664	     72.40530310	      4.83957942	     43.67108081	     14.47938214	    -15.47952951	     41.33857604	     11.10918636	     52.43576049
      1.23333330	     30.93407704	      0.70100035	     -4.74223721	     -0.18920719	      0.65789812	     -0.05898725	     50.52431721	     -5.40216565	      3.67601177	     90.48127815	      1.57919622	      1.32020529	     -7.27693259	     -7.49999371	     48.81843523	    -12.61629368	      2.76989986	     87.54168147	      1.52789057	     -1.22391650	     -6.40068313	     -7.49999371	    -48.35679472	     -2.09271804	      0.40451250	     19.32889412	    -14.45032679	     70.67620173	      5.01405803	     44.25682626	     14.45956086	    -15.52235622	     40.53537653	     11.00590591	     52.91723679
      1.25000000	     31.04064888	      0.67664851	     -4.66155876	     -0.18367598	      0.65804849	     -0.06166366	     50.32501028	     -5.44262116	      3.79082971	     90.67847180	      1.58263789	      1.40752535	     -7.20811432	     -7.49999373	     48.66788033	    -12.53901127	      2.66611317	     87.87635934	      1.53373181	     -1.16150733	     -6.44476721	     -7.49999373	    -48.09023870	     -2.04124165	      0.33868019	     19.16411659	    -14.49674474	     70.69037066	      5.01122980	     44.22188956	     14.33814275	    -15.45565728	     40.58058541	     10.95698567	     52.91930561
